<svg width="738" height="626" viewBox="0 0 738 626" fill="none" xmlns="http://www.w3.org/2000/svg">
<g clip-path="url(#clip0)">
<path d="M130.871 322.732L151.307 327.752L130.871 332.774L124.584 349.098L118.296 332.774L97.8604 327.752L118.296 322.732L124.584 306.408L130.871 322.732Z" fill="#FDEBD9"/>
<path d="M655.709 388.789C655.709 432.705 642.002 474.061 617.788 510.245C597.853 540.048 570.832 566.403 538.487 587.788C528.776 594.224 518.591 600.203 507.975 605.694C507.295 606.066 506.644 606.41 505.925 606.727C455.805 632.277 396.26 647.107 332.359 647.107C269.177 647.107 210.242 632.622 160.447 607.561C160.121 607.444 159.795 607.272 159.473 607.099C159.077 606.897 158.681 606.699 158.288 606.497C156.774 605.75 155.264 604.946 153.823 604.171C146.737 600.433 139.864 596.467 133.174 592.27C132.273 591.724 131.372 591.148 130.475 590.574C124.464 586.753 118.675 582.758 113.025 578.53C100.321 569.219 88.5554 559.045 77.8696 548.156C67.0051 537.089 57.2516 525.334 48.7282 512.918C48.3322 512.401 47.9712 511.827 47.6102 511.281C39.1534 498.806 31.9968 485.699 26.165 472.076C23.4699 465.784 21.0938 459.376 19.0435 452.853C17.2421 447.276 15.6965 441.672 14.4033 435.98C12.3881 427.302 10.9126 418.478 10.0504 409.508C9.33197 402.7 9.00604 395.771 9.00604 388.789C9.00604 301.647 63.0098 224.568 145.766 177.836C151.668 174.471 157.713 171.283 163.899 168.265C164.187 168.091 164.474 167.949 164.8 167.834C172.177 164.242 179.733 160.908 187.468 157.803C188.113 157.546 188.761 157.285 189.445 157.028C196.931 154.066 204.666 151.308 212.474 148.836H212.506C218.804 146.796 225.175 144.954 231.687 143.26C251.296 138.114 271.802 134.439 292.889 132.395C294.687 132.224 296.45 132.051 298.213 131.908C305.482 131.275 312.855 130.872 320.303 130.673C324.298 130.528 328.329 130.472 332.359 130.472C334.231 130.472 336.063 130.5 337.9 130.528H339.123C350.422 130.729 361.571 131.362 372.547 132.454C378.698 133.056 384.852 133.806 390.863 134.724C541.508 156.683 655.709 262.101 655.709 388.789" fill="#3861B6"/>
<path d="M538.487 587.788C528.776 594.224 519.352 604.174 508.739 609.66C508.053 610.033 507.621 613.015 506.899 613.331C456.782 638.881 394.427 650.754 330.523 650.754C267.344 650.754 210.242 632.622 160.447 607.561C160.121 607.444 159.795 607.272 159.473 607.099C159.077 606.897 158.681 606.699 158.288 606.497C156.774 605.75 155.264 604.946 153.823 604.171C146.737 600.433 139.864 596.467 133.174 592.27C132.273 591.724 131.372 591.148 130.475 590.574C124.464 586.753 118.675 582.758 113.025 578.53L99.0274 381.69C162.711 318.088 246.473 293.027 246.473 293.027L372.764 297.797C372.764 297.797 506.896 361.142 520.389 389.537C529.095 407.871 535.249 514.643 538.487 587.788" fill="white"/>
<path d="M212.909 97.9387C207.55 115.091 211.398 133.193 216.813 150.334C222.224 167.478 229.227 184.513 230.197 202.178C230.656 210.517 229.819 219.173 233.716 226.922C238.623 236.681 250.409 243.336 262.843 246.796C266.008 241.785 266.555 236.012 266.569 230.397C266.635 206.576 265.293 182.525 257.688 159.494C250.086 136.457 235.412 113.565 212.909 97.9387Z" fill="#07080A"/>
<path d="M374.166 255.606L374.058 258.739L373.161 285.983L372.764 297.797C372.764 297.797 361.753 315.789 318.109 319.065C274.504 322.368 246.473 293.027 246.473 293.027C246.473 293.027 251.04 273.223 251.509 255.231C251.979 237.269 244.171 216.721 244.171 216.721L374.166 255.606" fill="#F794CF"/>
<path d="M374.058 258.739L373.16 285.983C354.018 291.129 332.394 290.208 313.826 283.716C292.206 276.157 274.896 261.412 265.795 243.994C302.601 249.111 338.797 249.657 374.058 258.739" fill="#07080A"/>
<path d="M399.996 265.48C347.373 291.219 266.898 279.136 246.971 225.618C238.346 202.408 233.334 184.093 230.422 170.818C228.715 163.08 227.772 157.045 227.183 152.75C225.62 146.93 224.719 140.928 224.705 134.786C224.614 88.3087 271.973 50.5828 330.47 50.51C354.516 50.4792 376.662 56.8089 394.462 67.5085C409.764 76.7077 421.83 89.1625 428.99 103.356C437.195 119.632 436.487 136.692 436.725 153.864C436.907 166.714 436.988 179.502 435.712 192.338C433.473 214.888 429.274 243.63 407.997 260.427C405.568 262.339 402.908 264.058 399.996 265.48" fill="#F794CF"/>
<path d="M211.77 161.135C203.418 161.616 195.778 165.871 191.467 171.607C187.156 177.341 185.986 184.373 187.258 190.983C190.135 205.946 206.141 218.684 224.888 220.929C229.612 221.497 234.638 221.419 238.917 219.719C244.654 217.441 248.208 212.505 249.273 207.463C250.332 202.413 249.228 197.237 247.658 192.276C243.182 178.178 234.442 159.83 211.77 161.135Z" fill="#F794CF"/>
<path d="M227.394 198.945L227.646 198.861C228.203 198.614 228.403 198.054 228.098 197.612C225.775 194.272 223.374 190.812 220.248 187.769C216.666 184.284 212.66 181.893 208.346 180.664C207.746 180.499 207.088 180.748 206.877 181.224C206.66 181.703 206.975 182.229 207.575 182.397C211.489 183.511 215.155 185.711 218.467 188.934C221.464 191.848 223.812 195.23 226.083 198.505C226.346 198.883 226.896 199.057 227.394 198.945" fill="#07080A"/>
<path d="M375.071 164.656C378.4 174.95 381.348 185.596 381.348 196.047C381.348 199.711 380.987 203.351 380.156 206.943C379.9 208.048 378.719 208.782 377.464 208.779C377.117 208.779 376.76 208.726 376.402 208.603C373.756 207.684 371.047 206.73 368.478 205.879C368.019 205.728 367.494 205.901 367.301 206.268C367.111 206.635 367.329 207.055 367.788 207.209C370.332 208.048 373.031 209 375.687 209.921C376.269 210.12 376.876 210.218 377.464 210.218C379.592 210.215 381.509 208.989 381.926 207.206C382.778 203.513 383.146 199.787 383.146 196.047C383.146 185.381 380.149 174.622 376.812 164.298C376.686 163.914 376.196 163.682 375.716 163.783C375.235 163.881 374.944 164.273 375.071 164.656" fill="#07080A"/>
<path d="M334.129 171.644C334.129 175.426 330.803 178.497 326.695 178.497C322.588 178.497 319.259 175.426 319.259 171.644C319.259 167.856 322.588 164.788 326.695 164.788C330.803 164.788 334.129 167.856 334.129 171.644Z" fill="#07080A"/>
<path d="M409.525 171.644C409.525 175.426 406.196 178.497 402.092 178.497C397.984 178.497 394.655 175.426 394.655 171.644C394.655 167.856 397.984 164.788 402.092 164.788C406.196 164.788 409.525 167.856 409.525 171.644Z" fill="#07080A"/>
<path d="M355.09 212.721C356.149 216.551 359.356 220.128 364.048 221.576C365.366 221.979 366.772 222.172 368.173 222.172C371.811 222.169 375.488 220.87 377.475 218.337C377.738 218.001 377.608 217.558 377.187 217.348C376.763 217.138 376.21 217.242 375.947 217.578C374.377 219.602 371.293 220.736 368.173 220.736C366.982 220.736 365.79 220.568 364.693 220.235C360.698 219.02 357.789 215.842 356.846 212.413C356.741 212.024 356.261 211.78 355.777 211.864C355.29 211.951 354.985 212.335 355.09 212.721Z" fill="#07080A"/>
<path d="M313.528 145.021C311.131 146.569 308.73 148.24 307.377 150.452C306.018 152.66 305.937 155.547 307.963 157.403C309.62 158.926 312.277 159.452 314.786 159.696C320.79 160.281 326.969 159.682 332.629 157.968C336.175 156.89 339.866 155.026 340.64 152.059C341.345 149.34 339.298 146.594 336.645 144.808C329.8 140.2 320.24 140.684 313.528 145.021" fill="#07080A"/>
<path d="M400.241 143.45C397.487 144.559 394.704 145.791 392.79 147.722C390.88 149.654 390.039 152.459 391.525 154.618C392.745 156.381 395.202 157.347 397.588 158.011C403.304 159.595 409.501 160.051 415.483 159.329C419.24 158.878 423.341 157.677 424.879 154.903C426.288 152.37 425.016 149.34 422.892 147.146C417.421 141.485 407.948 140.348 400.241 143.45" fill="#07080A"/>
<path d="M230.359 165.608C233.46 170.177 236.565 174.746 239.664 179.314C246.06 177.187 250.987 172.906 255.2 168.444C274.528 147.955 282.642 120.046 273.61 95.2626C270.326 86.2678 264.61 77.5054 255.312 71.9736C245.096 72.3628 235.833 74.5212 227.341 79.1739C223.107 81.4975 219.193 84.3586 216.701 87.9923C214.595 91.0577 213.585 94.5403 212.912 98.0089C208.458 120.92 216.582 145.317 230.359 165.608" fill="#07080A"/>
<path d="M264.158 84.5154C285.487 111.883 326.569 128.596 366.828 126.281C364.721 122.406 362.299 117.922 360.193 114.044C381.656 130.337 410.706 144.704 437.082 155.443C437.282 155.522 441.512 143.445 441.866 142.059C443.156 137.017 444.001 131.911 444.334 126.768C445.834 103.485 437.16 80.7304 417.978 62.99C410.815 56.3665 402.442 50.5687 393.165 45.8991C365.044 31.7393 329.653 27.8201 297.175 33.4975C282.27 36.1066 267.704 40.7257 255.715 48.2731C243.729 55.8233 234.463 66.4726 231.582 78.446C240.834 79.4818 255 83.0064 264.158 84.5154" fill="#07080A"/>
<path d="M4.40445 526.742C4.40445 526.742 -12.1272 643.417 26.4524 658.092C65.0355 672.769 185.379 625.069 185.379 625.069C185.379 625.069 268.514 622.868 275.863 618.098C283.213 613.331 284.131 603.423 284.131 603.423C284.131 603.423 297.147 596.943 295.307 585.935C295.307 585.935 309.855 577.741 307.556 568.936L313.987 558.663L181.244 550.958L115.1 561.599L118.317 529.676L4.40445 526.742" fill="#F794CF"/>
<path d="M240.456 574.913C240.466 574.913 247.405 575.156 256.893 575.156C268.914 575.154 284.993 574.77 296.313 572.993C303.116 571.921 308.902 568.402 312.025 563.46L316.017 557.15C316.241 556.798 316.062 556.364 315.621 556.185C315.175 556.005 314.636 556.149 314.411 556.504L310.42 562.814C307.546 567.361 302.222 570.596 295.966 571.582C284.898 573.326 268.854 573.721 256.893 573.718C252.168 573.718 248.078 573.66 245.166 573.597C242.257 573.538 240.54 573.477 240.536 573.477C240.039 573.461 239.618 573.768 239.597 574.162C239.576 574.56 239.961 574.896 240.456 574.913" fill="#07080A"/>
<path d="M242.79 589.649C245.345 589.658 247.945 589.669 250.567 589.669C257.944 589.669 265.479 589.597 272.695 589.283C280.7 588.928 289.038 588.253 295.788 585.246C302.552 582.245 307.574 576.82 308.759 567.419C308.808 567.024 308.447 566.672 307.952 566.632C307.458 566.591 307.017 566.878 306.968 567.273C305.779 576.344 301.171 581.175 294.908 583.993C288.631 586.803 280.546 587.503 272.597 587.847C265.434 588.16 257.93 588.23 250.567 588.23C247.952 588.23 245.355 588.222 242.797 588.214C242.299 588.21 241.896 588.53 241.893 588.928C241.893 589.325 242.292 589.647 242.79 589.649Z" fill="#07080A"/>
<path d="M243.154 604.322C243.172 604.322 254.239 605.276 265.178 605.276C269.005 605.276 272.818 605.161 276.151 604.842C279.491 604.517 282.344 604.009 284.334 603.135C292.104 599.7 296.387 593.484 296.394 587.849C296.394 586.914 296.275 585.996 296.033 585.109C295.928 584.72 295.448 584.476 294.96 584.56C294.477 584.644 294.168 585.028 294.277 585.416C294.491 586.195 294.596 587.013 294.596 587.849C294.603 592.906 290.671 598.706 283.465 601.877C281.867 602.592 279.161 603.11 275.937 603.415C272.713 603.726 268.959 603.84 265.178 603.84C259.773 603.84 254.31 603.602 250.202 603.367C246.095 603.13 243.354 602.891 243.347 602.891C242.853 602.85 242.411 603.135 242.359 603.53C242.302 603.925 242.66 604.277 243.154 604.322" fill="#07080A"/>
<path d="M116.172 366.041C116.172 366.041 18.1848 432.573 -14.8854 545.087L153.683 550.958L116.172 366.041Z" fill="white"/>
<path d="M165.627 553.895C165.627 553.895 267.137 511.698 269.892 517.938C272.646 524.172 229.931 557.195 229.931 557.195L165.627 553.895Z" fill="#F794CF"/>
<path d="M62.4315 568.788L170.218 554.113C170.709 554.046 171.038 553.674 170.954 553.284C170.87 552.892 170.404 552.629 169.917 552.696L62.1302 567.372C61.6395 567.438 61.31 567.808 61.3942 568.201C61.4783 568.592 61.9409 568.855 62.4315 568.788Z" fill="#07080A"/>
<path d="M276.449 558.794L201.456 549.488H605.195L654.706 558.794C654.706 558.794 275.906 558.357 276.449 558.794" fill="#AEA9DC"/>
<path d="M654.706 558.794C654.706 558.794 602.63 558.732 537.12 558.679C484.852 558.637 424.014 558.6 374.275 558.6C351.628 558.6 331.283 558.606 315.084 558.625C314.401 558.625 313.735 558.629 313.066 558.629C290.443 558.656 276.442 558.707 276.449 558.79C276.449 558.79 276.449 558.79 276.449 558.794L234.505 553.589L201.456 549.488H605.195L654.706 558.794" fill="#7978B8"/>
<path d="M732.892 371.925L654.706 558.794H276.449L346.43 371.925H732.892Z" fill="#07080A"/>
<path d="M539.973 468.04C539.973 480.602 527.223 490.788 511.494 490.788C495.769 490.788 483.019 480.602 483.019 468.04C483.019 455.476 495.769 445.291 511.494 445.291C527.223 445.291 539.973 455.476 539.973 468.04" fill="#FDEBD9"/>
<path d="M127.528 452.559L114.206 561.529C114.157 561.924 114.518 562.274 115.012 562.313C115.506 562.352 115.948 562.064 115.997 561.667L129.319 452.699C129.364 452.304 129.003 451.951 128.509 451.912C128.015 451.876 127.573 452.164 127.528 452.559Z" fill="#07080A"/>
<path d="M609.608 198.74C609.608 232.244 575.605 259.405 533.661 259.405C491.717 259.405 457.715 232.244 457.715 198.74C457.715 165.236 491.717 138.075 533.661 138.075C575.605 138.075 609.608 165.236 609.608 198.74Z" fill="#FBC46F"/>
<path d="M603.734 198.74H603.324C603.324 214.106 595.526 228.017 582.92 238.087C570.313 248.157 552.898 254.385 533.661 254.385C514.424 254.385 497.013 248.157 484.403 238.087C471.797 228.017 463.999 214.106 463.999 198.74C463.999 183.374 471.797 169.463 484.403 159.393C497.013 149.323 514.424 143.094 533.661 143.094C552.898 143.094 570.313 149.323 582.92 159.393C595.526 169.463 603.324 183.374 603.324 198.74H603.734H604.144C604.144 167.646 572.588 142.439 533.661 142.439C494.735 142.439 463.179 167.646 463.179 198.74C463.179 229.834 494.735 255.043 533.661 255.043C572.588 255.043 604.144 229.834 604.144 198.74H603.734" fill="#FDEBD9"/>
<path d="M519.012 200.593C521.03 200.593 522.586 201.68 522.586 203.317C522.586 204.163 522.418 204.877 522.253 205.562C522.085 206.223 521.92 206.831 521.92 207.413C521.92 210.478 526.785 211.534 530.889 211.534C535.55 211.534 540.38 210.134 540.38 205.669C540.38 201.097 534.593 199.143 529.894 197.637C523.774 195.655 516.73 193.144 516.73 185.35C516.73 180.174 522.19 176.739 528.075 175.602V173.279C528.075 171.031 528.572 169.471 531.65 169.471C533.7 169.471 535.087 169.947 535.087 171.773C535.087 172.722 535.088 174.149 535.056 175.392C540.18 176.025 546.664 178.323 546.664 183.105C546.664 185.034 544.978 186.092 543.089 186.092C541.308 186.092 539.29 184.93 539.125 183.343C537.8 181.204 534.593 180.938 531.814 180.938C528.87 180.938 524.139 182.419 524.139 185.538C524.139 189.37 529.003 191.19 534.029 193.04C540.313 195.286 547.789 198.247 547.789 205.644C547.789 212.326 541.403 216.052 534.46 217.004V220.279C534.46 222.55 533.927 224.137 530.889 224.137C528.772 224.137 527.381 223.633 527.381 221.814C527.381 220.727 527.381 218.692 527.447 217.054C520.736 216.29 514.547 213.225 514.547 207.441C514.547 204.294 514.582 200.593 519.012 200.593" fill="white"/>
<path d="M187.952 233.23C187.952 266.731 153.949 293.895 112.009 293.895C70.0648 293.895 36.0623 266.731 36.0623 233.23C36.0623 199.726 70.0648 172.565 112.009 172.565C153.949 172.565 187.952 199.726 187.952 233.23Z" fill="#FBC46F"/>
<path d="M182.082 233.23H181.668C181.668 248.596 173.874 262.504 161.264 272.577C148.657 282.647 131.243 288.873 112.009 288.875C92.7681 288.873 75.3567 282.647 62.7468 272.577C50.1405 262.504 42.346 248.596 42.346 233.23C42.346 217.864 50.1405 203.953 62.7468 193.883C75.3567 183.81 92.7681 177.584 112.009 177.584C131.243 177.584 148.657 183.81 161.264 193.883C173.874 203.953 181.668 217.864 181.668 233.23H182.082H182.492C182.492 202.136 150.932 176.927 112.009 176.927C73.0787 176.927 41.5224 202.136 41.5224 233.23C41.5224 264.321 73.0787 289.531 112.009 289.531C150.932 289.531 182.492 264.321 182.492 233.23H182.082Z" fill="#FDEBD9"/>
<path d="M97.3592 235.086C99.3744 235.086 100.927 236.167 100.927 237.804C100.927 238.65 100.766 239.364 100.601 240.052C100.433 240.713 100.268 241.318 100.268 241.9C100.268 244.965 105.133 246.024 109.233 246.024C113.894 246.024 118.724 244.621 118.724 240.156C118.724 235.587 112.938 233.63 108.238 232.124C102.119 230.142 95.0742 227.634 95.0742 219.84C95.0742 214.664 100.531 211.226 106.422 210.092V207.766C106.422 205.518 106.913 203.961 109.99 203.961C112.04 203.961 113.432 204.437 113.432 206.26C113.432 207.211 113.432 208.636 113.397 209.879C118.524 210.512 125.008 212.813 125.008 217.595C125.008 219.524 123.322 220.579 121.436 220.579C119.649 220.579 117.63 219.417 117.466 217.833C116.144 215.691 112.938 215.428 110.158 215.428C107.211 215.428 102.487 216.909 102.487 220.025C102.487 223.857 107.344 225.677 112.373 227.53C118.657 229.772 126.133 232.734 126.133 240.131C126.133 246.813 119.751 250.539 112.804 251.491V254.766C112.804 257.042 112.275 258.624 109.233 258.624C107.116 258.624 105.725 258.123 105.725 256.3C105.725 255.217 105.725 253.182 105.791 251.547C99.0764 250.777 92.8907 247.712 92.8907 241.928C92.8907 238.784 92.9258 235.086 97.3592 235.086" fill="white"/>
<path d="M634.133 352.832H419.17C401.237 352.832 386.559 341.111 386.559 326.783C386.559 312.455 401.237 300.734 419.17 300.734H634.133C652.07 300.734 666.744 312.455 666.744 326.783C666.744 341.111 652.07 352.832 634.133 352.832Z" fill="#AEA9DC"/>
<path d="M467.419 307.705V347.329C467.419 347.726 467.822 348.048 468.32 348.048C468.814 348.048 469.217 347.726 469.217 347.329V307.705C469.217 307.307 468.814 306.985 468.32 306.985C467.822 306.985 467.419 307.307 467.419 307.705Z" fill="#FDEBD9"/>
<path d="M440.454 321.036H439.557C439.553 324.25 437.927 327.153 435.288 329.261C432.649 331.369 429.015 332.668 424.988 332.668C420.964 332.668 417.33 331.369 414.691 329.261C412.052 327.153 410.426 324.25 410.426 321.036C410.426 317.822 412.052 314.916 414.691 312.811C417.33 310.703 420.964 309.404 424.988 309.401C429.015 309.404 432.649 310.703 435.288 312.811C437.927 314.916 439.553 317.822 439.557 321.036H440.454H441.355C441.355 313.816 434.03 307.965 424.988 307.965C415.953 307.965 408.628 313.816 408.624 321.036C408.628 328.253 415.953 334.104 424.988 334.107C434.03 334.104 441.355 328.253 441.355 321.036H440.454Z" fill="#FDEBD9"/>
<path d="M433.613 332.108L443.107 342.136C443.405 342.455 443.969 342.517 444.365 342.276C444.761 342.038 444.838 341.587 444.54 341.271L435.046 331.243C434.745 330.927 434.181 330.862 433.785 331.103C433.389 331.341 433.311 331.792 433.613 332.108" fill="#FDEBD9"/>
<path d="M168.806 418.139C168.806 450.546 135.921 476.813 95.3546 476.813C54.7843 476.813 21.8998 450.546 21.8998 418.139C21.8998 385.735 54.7843 359.464 95.3546 359.464C135.921 359.464 168.806 385.735 168.806 418.139Z" fill="#F794CF"/>
<path d="M94.2855 406.143C94.2855 406.143 71.3439 383.96 57.2551 399.391C43.1733 414.824 95.0881 450.829 95.0881 450.829C95.0881 450.829 93.6827 406.625 94.2855 406.143" fill="#F04432"/>
<path d="M93.469 406.143C93.469 406.143 116.411 383.96 130.499 399.391C144.581 414.824 94.955 450.829 94.955 450.829C94.955 450.829 94.0753 406.625 93.469 406.143" fill="#F04432"/>
<path d="M208.391 347.659H402.463C412.742 347.659 421.077 354.316 421.077 362.527V394.8C421.077 403.011 412.742 409.668 402.463 409.668H348.316L352.956 441.938L323.152 409.668H208.391C198.108 409.668 189.774 403.011 189.774 394.8V362.527C189.774 354.316 198.108 347.659 208.391 347.659Z" fill="#FDEBD9"/>
<path d="M265.991 377.782C265.991 381.656 262.058 384.797 257.204 384.797C252.354 384.797 248.422 381.656 248.422 377.782C248.422 373.907 252.354 370.766 257.204 370.766C262.058 370.766 265.991 373.907 265.991 377.782Z" fill="#AEA9DC"/>
<path d="M298.525 377.782C298.525 381.656 294.592 384.797 289.738 384.797C284.891 384.797 280.959 381.656 280.959 377.782C280.959 373.907 284.891 370.766 289.738 370.766C294.592 370.766 298.525 373.907 298.525 377.782Z" fill="#AEA9DC"/>
<path d="M331.059 377.782C331.059 381.656 327.127 384.797 322.276 384.797C317.426 384.797 313.493 381.656 313.493 377.782C313.493 373.907 317.426 370.766 322.276 370.766C327.127 370.766 331.059 373.907 331.059 377.782Z" fill="#AEA9DC"/>
<path d="M363.596 377.782C363.596 381.656 359.664 384.797 354.81 384.797C349.96 384.797 346.027 381.656 346.027 377.782C346.027 373.907 349.96 370.766 354.81 370.766C359.664 370.766 363.596 373.907 363.596 377.782Z" fill="#AEA9DC"/>
<path d="M434.461 608.697C474.351 614.59 512.675 593.538 520.049 561.674C527.43 529.81 501.071 499.201 461.181 493.308C423.663 487.765 387.547 506.063 377.24 534.765L345.312 520.482L374.419 548.895C373.087 577.509 398.167 603.336 434.461 608.697" fill="#3861B6"/>
<path d="M404.657 521.874H421.402L419.976 553.108L410.839 574.053C410.703 574.372 410.762 574.726 411.011 575.002C411.256 575.28 411.652 575.442 412.077 575.442H486.856C487.578 575.442 488.163 574.975 488.163 574.398C488.163 573.821 487.578 573.353 486.856 573.353H413.916L422.51 553.645L422.58 553.34L424.066 520.869C424.08 520.586 423.947 520.309 423.702 520.105C423.456 519.9 423.116 519.786 422.759 519.786H404.657C403.935 519.786 403.35 520.253 403.35 520.83C403.35 521.406 403.935 521.874 404.657 521.874" fill="#FDEBD9"/>
<path d="M423.053 532.445V533.489H491.269L481.466 556.761H427.213L424.357 532.347L423.053 532.445V533.489V532.445L421.753 532.54L424.721 557.904C424.784 558.438 425.349 558.85 426.022 558.85H482.405C482.966 558.85 483.467 558.564 483.646 558.139L494.325 532.775C494.461 532.459 494.395 532.106 494.149 531.835C493.904 531.563 493.508 531.398 493.087 531.398H423.053C422.685 531.398 422.338 531.521 422.089 531.739C421.84 531.958 421.718 532.246 421.753 532.54L423.053 532.445Z" fill="#FDEBD9"/>
<path d="M435.221 581.154H433.914C433.907 584.045 430.977 586.385 427.357 586.391C423.74 586.385 420.81 584.045 420.803 581.154C420.81 578.261 423.74 575.924 427.357 575.918C430.977 575.924 433.907 578.261 433.914 581.154H435.221H436.529C436.529 577.105 432.421 573.83 427.357 573.83C422.296 573.83 418.189 577.105 418.189 581.154C418.189 585.199 422.293 588.479 427.357 588.479C432.421 588.479 436.529 585.199 436.529 581.154H435.221Z" fill="#FDEBD9"/>
<path d="M479.139 581.154H477.831C477.824 584.045 474.894 586.385 471.274 586.391C467.654 586.385 464.727 584.045 464.72 581.154C464.727 578.261 467.654 575.924 471.274 575.918C474.898 575.924 477.824 578.261 477.831 581.154H479.139H480.446C480.446 577.105 476.338 573.83 471.274 573.83C466.21 573.83 462.106 577.108 462.106 581.154C462.106 585.199 466.21 588.479 471.274 588.479C476.342 588.479 480.446 585.199 480.446 581.154H479.139" fill="#FDEBD9"/>
<path d="M223.17 262.963L237.817 266.561L223.17 270.158L218.667 281.857L214.163 270.158L199.517 266.561L214.163 262.963L218.667 251.264L223.17 262.963Z" fill="#FDEBD9"/>
<path d="M466.918 262.963L481.56 266.561L466.918 270.158L462.414 281.857L457.907 270.158L443.265 266.561L457.907 262.963L462.414 251.264L466.918 262.963" fill="#FDEBD9"/>
<path d="M569.809 281.549L584.448 285.152L569.809 288.749L565.298 300.443L560.794 288.749L546.152 285.152L560.794 281.549L565.298 269.856L569.809 281.549Z" fill="#FDEBD9"/>
<path d="M533.85 349.062L548.49 352.659L533.85 356.256L529.343 367.955L524.836 356.256L510.197 352.659L524.836 349.062L529.343 337.363L533.85 349.062Z" fill="#FDEBD9"/>
<path d="M65.165 321.036L79.8076 324.633L65.165 328.231L60.6616 339.93L56.1545 328.231L41.5119 324.633L56.1545 321.036L60.6616 309.337L65.165 321.036Z" fill="#FDEBD9"/>
</g>
<defs>
<clipPath id="clip0">
<rect width="738" height="626" fill="white" transform="matrix(-1 0 0 1 738 0)"/>
</clipPath>
</defs>
</svg>
